<?xml version="1.0" encoding="UTF-8"?>
<svg xmlns="http://www.w3.org/2000/svg" xmlns:xlink="http://www.w3.org/1999/xlink" width="380.96pt" height="155.15pt" viewBox="0 0 380.96 155.15" version="1.1">
<defs>
<clipPath id="clip1">
  <path d="M 299 75 L 380.960938 75 L 380.960938 86 L 299 86 Z M 299 75 "/>
</clipPath>
<clipPath id="clip2">
  <path d="M 299 114 L 380.960938 114 L 380.960938 125 L 299 125 Z M 299 114 "/>
</clipPath>
<clipPath id="clip3">
  <path d="M 299 94 L 380.960938 94 L 380.960938 105 L 299 105 Z M 299 94 "/>
</clipPath>
<clipPath id="clip4">
  <path d="M 100 142 L 113 142 L 113 155.148438 L 100 155.148438 Z M 100 142 "/>
</clipPath>
<clipPath id="clip5">
  <path d="M 121 137 L 135 137 L 135 155.148438 L 121 155.148438 Z M 121 137 "/>
</clipPath>
<clipPath id="clip6">
  <path d="M 135 142 L 149 142 L 149 155.148438 L 135 155.148438 Z M 135 142 "/>
</clipPath>
<clipPath id="clip7">
  <path d="M 185 139 L 196 139 L 196 155.148438 L 185 155.148438 Z M 185 139 "/>
</clipPath>
<clipPath id="clip8">
  <path d="M 210 142 L 223 142 L 223 155.148438 L 210 155.148438 Z M 210 142 "/>
</clipPath>
<clipPath id="clip9">
  <path d="M 223 139 L 234 139 L 234 155.148438 L 223 155.148438 Z M 223 139 "/>
</clipPath>
<clipPath id="clip10">
  <path d="M 254 142 L 265 142 L 265 155.148438 L 254 155.148438 Z M 254 142 "/>
</clipPath>
<clipPath id="clip11">
  <path d="M 265 139 L 276 139 L 276 155.148438 L 265 155.148438 Z M 265 139 "/>
</clipPath>
<clipPath id="clip12">
  <path d="M 276 142 L 289 142 L 289 155.148438 L 276 155.148438 Z M 276 142 "/>
</clipPath>
<clipPath id="clip13">
  <path d="M 304 142 L 315 142 L 315 155.148438 L 304 155.148438 Z M 304 142 "/>
</clipPath>
</defs>
<g id="surface1">
<g clip-path="url(#clip1)" clip-rule="nonzero">
<path style=" stroke:none;fill-rule:nonzero;fill:rgb(34.498596%,71.798706%,36.099243%);fill-opacity:1;" d="M 299.949219 85.503906 L 299.949219 75.589844 L 380.929688 75.589844 L 380.953125 85.492188 Z M 299.949219 85.503906 "/>
</g>
<g clip-path="url(#clip2)" clip-rule="nonzero">
<path style=" stroke:none;fill-rule:nonzero;fill:rgb(34.498596%,71.798706%,36.099243%);fill-opacity:1;" d="M 299.949219 124.003906 L 299.949219 114.125 L 380.929688 114.125 L 380.960938 124.019531 Z M 299.949219 124.003906 "/>
</g>
<g clip-path="url(#clip3)" clip-rule="nonzero">
<path style=" stroke:none;fill-rule:nonzero;fill:rgb(34.498596%,71.798706%,36.099243%);fill-opacity:1;" d="M 299.949219 104.730469 L 299.949219 94.855469 L 380.929688 94.855469 L 380.953125 104.75 Z M 299.949219 104.730469 "/>
</g>
<path style=" stroke:none;fill-rule:nonzero;fill:rgb(34.498596%,71.798706%,36.099243%);fill-opacity:1;" d="M 102.804688 124.003906 L 102.804688 58.585938 L 279.804688 58.585938 L 279.804688 124.019531 Z M 102.804688 124.003906 "/>
<path style=" stroke:none;fill-rule:nonzero;fill:rgb(34.498596%,71.798706%,36.099243%);fill-opacity:1;" d="M 250.089844 9.808594 L 249.988281 12.460938 C 249.839844 16.15625 249.652344 20.316406 251.664063 22.21875 C 252.429688 22.929688 253.414063 23.316406 254.785156 23.316406 C 260.820313 23.316406 265.785156 18.910156 265.785156 13.46875 C 265.785156 8.820313 260.925781 4.992188 254.980469 4.992188 C 252.320313 4.992188 250.070313 7.203125 250.089844 9.808594 M 251.074219 32.675781 L 251.074219 45.828125 C 251.246094 46.207031 254.695313 47.527344 257.398438 47.527344 C 262.214844 47.527344 267.375 44.875 267.375 40.457031 C 267.375 34.289063 261.820313 29.253906 254.980469 29.253906 C 252.890625 29.253906 251.074219 30.785156 251.074219 32.675781 M 225.816406 54.335938 C 235.886719 45.492188 241.773438 34.328125 241.960938 25.355469 C 242.109375 14.933594 238.488281 7.605469 229.441406 0.886719 L 266.996094 0.886719 C 272.171875 0.886719 277.394531 3.683594 277.394531 8.21875 L 277.394531 16.394531 C 277.394531 20.726563 269.570313 25.355469 269.570313 25.355469 C 269.570313 25.355469 274.152344 28.769531 275.808594 30.585938 C 278.695313 33.722656 279.964844 36.324219 279.964844 40.40625 C 279.964844 47.625 272.195313 54.335938 265.921875 54.335938 L 225.816406 54.335938 "/>
<path style=" stroke:none;fill-rule:nonzero;fill:rgb(34.498596%,71.798706%,36.099243%);fill-opacity:1;" d="M 207.394531 47.824219 L 207.195313 47.539063 L 207.5625 47.527344 C 220.039063 45.386719 224.558594 34.660156 224.558594 25.355469 C 224.558594 17.789063 222.941406 4.953125 212.246094 4.953125 C 208.238281 4.953125 206.230469 8.605469 206.246094 15.753906 L 206.230469 17.363281 C 206.199219 20.320313 206.148438 22.46875 207.792969 25.269531 L 207.980469 25.53125 L 195.207031 25.53125 L 195.375 25.269531 C 197.882813 20.597656 199.015625 17.464844 199.015625 12.085938 C 199.015625 7.089844 196.28125 4.355469 191.746094 0.398438 L 191.359375 0 L 201.90625 0 C 207.617188 0 212.589844 0 219.5625 0.425781 C 231.980469 1.320313 237.242188 15.714844 236.957031 25.101563 C 236.515625 38.414063 221.769531 54.335938 216.183594 54.335938 C 212.0625 54.335938 207.5625 48.074219 207.394531 47.824219 "/>
<path style=" stroke:none;fill-rule:nonzero;fill:rgb(34.498596%,71.798706%,36.099243%);fill-opacity:1;" d="M 170.769531 13.699219 C 170.769531 17.875 172.253906 20.410156 174.761719 24.054688 C 175.714844 23.347656 182.277344 18.175781 182.277344 12.976563 C 182.277344 9.960938 180.246094 6.804688 176.796875 6.804688 C 172.875 6.804688 170.769531 10.371094 170.769531 13.699219 M 192.980469 54.523438 C 185.9375 54.523438 180.847656 45.632813 178.242188 39.933594 C 175.878906 34.804688 170.460938 32.675781 166.414063 30.820313 C 169.277344 29.015625 171.210938 27.972656 173.664063 25.765625 L 161.140625 25.71875 L 161.140625 7.519531 C 157.589844 10.035156 154.632813 12.773438 152.285156 14.363281 C 151.339844 8.351563 145.128906 4.792969 138.246094 4.792969 C 124.902344 4.792969 116.367188 16.15625 116.367188 27.839844 C 116.367188 39.835938 126.085938 50.34375 139.804688 50.9375 C 151.242188 51.324219 168.992188 41.339844 173.414063 41.339844 C 173.414063 41.339844 175.128906 42.960938 175.738281 44.046875 C 178.003906 48.074219 179.535156 50.988281 183.058594 54.523438 L 126.257813 54.523438 C 111.558594 54.523438 103.289063 41.203125 103.289063 28.296875 C 103.289063 13.992188 114.621094 0.695313 130.914063 0.695313 L 147.640625 0.695313 C 153.257813 0.695313 156.675781 1.929688 161.140625 4.792969 C 161.574219 3.640625 161.140625 2.875 161.140625 1.582031 L 184.15625 1.582031 C 190.839844 1.582031 195.082031 7.339844 195.082031 13.207031 C 195.082031 18.175781 193.464844 21.453125 189.3125 24.863281 C 187.328125 26.539063 184.15625 29.164063 184.15625 29.164063 C 184.203125 31.59375 201.855469 48.644531 208.601563 54.523438 L 192.980469 54.523438 "/>
<path style=" stroke:none;fill-rule:nonzero;fill:rgb(34.498596%,71.798706%,36.099243%);fill-opacity:1;" d="M 0 85.503906 L 0 75.589844 L 80.554688 75.589844 L 80.554688 85.492188 Z M 0 85.503906 "/>
<path style=" stroke:none;fill-rule:nonzero;fill:rgb(34.498596%,71.798706%,36.099243%);fill-opacity:1;" d="M 0 124.003906 L 0 114.125 L 80.554688 114.125 L 80.578125 124.019531 Z M 0 124.003906 "/>
<path style=" stroke:none;fill-rule:nonzero;fill:rgb(34.498596%,71.798706%,36.099243%);fill-opacity:1;" d="M 0 104.730469 L 0 94.855469 L 80.554688 94.855469 L 80.554688 104.75 Z M 0 104.730469 "/>
<path style=" stroke:none;fill-rule:nonzero;fill:rgb(100%,100%,100%);fill-opacity:1;" d="M 84.800781 140.785156 L 78.535156 140.785156 L 76.691406 154.929688 L 72.382813 154.929688 L 74.214844 140.785156 L 67.941406 140.765625 L 68.351563 137.613281 L 85.230469 137.589844 "/>
<path style=" stroke:none;fill-rule:nonzero;fill:rgb(100%,100%,100%);fill-opacity:1;" d="M 90.222656 144.960938 L 90.257813 144.960938 C 91.53125 143.578125 92.804688 142.964844 94.242188 142.972656 C 96.382813 142.972656 98.367188 144.285156 97.964844 147.457031 L 96.988281 154.925781 L 93.308594 154.925781 L 94.175781 148.21875 C 94.398438 146.488281 93.730469 145.691406 92.597656 145.683594 C 91.734375 145.683594 90.925781 146.21875 89.886719 147.457031 L 88.953125 154.925781 L 85.242188 154.925781 L 87.480469 137.613281 L 91.179688 137.613281 "/>
<g clip-path="url(#clip4)" clip-rule="nonzero">
<path style=" stroke:none;fill-rule:nonzero;fill:rgb(100%,100%,100%);fill-opacity:1;" d="M 109.335938 147.707031 C 109.378906 146.132813 108.539063 145.171875 107.128906 145.152344 C 105.664063 145.152344 104.617188 146.113281 104.242188 147.738281 Z M 111.628906 153.601563 C 109.335938 155.140625 107.089844 155.140625 106.179688 155.140625 C 102.085938 155.140625 99.695313 152.761719 100.179688 149.105469 C 100.652344 145.527344 103.546875 142.972656 107.136719 142.972656 C 110.550781 142.972656 113.058594 145.398438 112.339844 149.65625 L 103.914063 149.65625 C 103.78125 151.75 105.042969 152.960938 107.363281 152.960938 C 108.832031 152.960938 110.039063 152.535156 111.917969 151.285156 "/>
</g>
<g clip-path="url(#clip5)" clip-rule="nonzero">
<path style=" stroke:none;fill-rule:nonzero;fill:rgb(100%,100%,100%);fill-opacity:1;" d="M 125.160156 151.683594 C 125.863281 152.390625 126.480469 152.683594 127.230469 152.683594 C 128.945313 152.683594 130.203125 151.339844 130.527344 148.996094 C 130.847656 146.488281 129.632813 145.429688 128.113281 145.429688 C 127.402344 145.429688 126.816406 145.664063 125.871094 146.277344 Z M 126.164063 143.871094 C 127.433594 143.1875 128.175781 142.972656 129.300781 142.972656 C 132.699219 142.972656 134.734375 145.429688 134.25 149.019531 C 133.785156 152.648438 131.191406 155.144531 127.996094 155.144531 C 126.832031 155.144531 125.789063 154.765625 124.863281 154.023438 L 124.75 154.925781 L 121.0625 154.925781 L 123.308594 137.585938 L 126.992188 137.585938 "/>
</g>
<g clip-path="url(#clip6)" clip-rule="nonzero">
<path style=" stroke:none;fill-rule:nonzero;fill:rgb(100%,100%,100%);fill-opacity:1;" d="M 142.945313 149.238281 C 140.648438 150.035156 139.539063 150.550781 139.390625 151.714844 C 139.328125 152.414063 139.773438 152.96875 140.410156 152.96875 C 141.109375 152.96875 141.898438 152.644531 142.589844 152.074219 Z M 147.988281 154.082031 C 146.910156 154.691406 145.414063 155.140625 144.410156 155.140625 C 143.210938 155.140625 142.65625 154.765625 142.515625 153.820313 C 140.984375 154.796875 139.773438 155.140625 138.484375 155.140625 C 136.621094 155.140625 135.398438 153.761719 135.59375 152.300781 C 135.945313 149.476563 138.070313 148.925781 143.179688 147.402344 C 143.375 146.304688 143.003906 145.433594 141.394531 145.433594 C 139.925781 145.433594 138.148438 146.21875 136.835938 147.402344 L 137.238281 144.417969 C 138.867188 143.488281 140.625 142.972656 142.476563 142.972656 C 145.429688 142.972656 147.308594 143.96875 146.964844 146.550781 L 146.289063 151.875 C 146.226563 152.472656 146.394531 152.683594 146.796875 152.683594 C 147.046875 152.683594 147.332031 152.644531 148.300781 152.011719 "/>
</g>
<path style=" stroke:none;fill-rule:nonzero;fill:rgb(100%,100%,100%);fill-opacity:1;" d="M 154.417969 144.90625 C 155.761719 143.550781 156.980469 142.972656 158.472656 142.972656 C 160.300781 142.972656 162.613281 144.027344 162.15625 147.484375 L 161.1875 154.925781 L 157.515625 154.925781 L 158.421875 147.792969 C 158.648438 146.125 157.9375 145.429688 156.90625 145.429688 C 155.976563 145.429688 155.238281 145.9375 154.097656 147.382813 L 153.121094 154.925781 L 149.4375 154.925781 L 150.9375 143.207031 L 154.632813 143.207031 "/>
<path style=" stroke:none;fill-rule:nonzero;fill:rgb(100%,100%,100%);fill-opacity:1;" d="M 168.765625 149.019531 L 168.816406 149.019531 L 174.121094 143.207031 L 178.453125 143.207031 L 173.109375 149.019531 L 177.140625 154.925781 L 172.589844 154.925781 L 168.804688 149.152344 L 168.765625 149.152344 L 167.996094 154.925781 L 164.3125 154.925781 L 166.558594 137.605469 L 170.257813 137.605469 "/>
<g clip-path="url(#clip7)" clip-rule="nonzero">
<path style=" stroke:none;fill-rule:nonzero;fill:rgb(100%,100%,100%);fill-opacity:1;" d="M 194.945313 145.722656 L 190.6875 145.722656 L 190.046875 150.550781 C 189.902344 151.6875 190.472656 152.421875 191.628906 152.421875 C 192.375 152.421875 193.101563 152.238281 194.175781 151.75 L 193.824219 154.40625 C 192.449219 154.949219 191.445313 155.140625 190.328125 155.140625 C 187.886719 155.140625 185.921875 154.023438 186.328125 150.765625 L 186.980469 145.722656 L 185.308594 145.722656 L 185.398438 145.03125 L 191.023438 139.53125 L 191.445313 139.539063 L 191.003906 143.210938 L 195.273438 143.210938 "/>
</g>
<path style=" stroke:none;fill-rule:nonzero;fill:rgb(100%,100%,100%);fill-opacity:1;" d="M 200.675781 144.960938 L 200.734375 144.960938 C 201.980469 143.589844 203.261719 142.972656 204.707031 142.972656 C 206.820313 142.972656 208.824219 144.285156 208.441406 147.457031 L 207.453125 154.925781 L 203.773438 154.925781 L 204.636719 148.21875 C 204.859375 146.488281 204.195313 145.691406 203.0625 145.691406 C 202.203125 145.691406 201.382813 146.21875 200.363281 147.457031 L 199.402344 154.925781 L 195.71875 154.925781 L 197.957031 137.613281 L 201.644531 137.613281 "/>
<g clip-path="url(#clip8)" clip-rule="nonzero">
<path style=" stroke:none;fill-rule:nonzero;fill:rgb(100%,100%,100%);fill-opacity:1;" d="M 217.488281 149.25 C 215.199219 150.039063 214.101563 150.550781 213.941406 151.730469 C 213.851563 152.414063 214.296875 152.96875 214.976563 152.96875 C 215.683594 152.96875 216.445313 152.648438 217.132813 152.074219 Z M 222.566406 154.082031 C 221.453125 154.691406 219.96875 155.144531 218.96875 155.144531 C 217.742188 155.144531 217.214844 154.765625 217.078125 153.820313 C 215.527344 154.796875 214.296875 155.144531 213.03125 155.144531 C 211.164063 155.144531 209.9375 153.761719 210.132813 152.300781 C 210.507813 149.476563 212.636719 148.925781 217.714844 147.402344 C 217.953125 146.292969 217.550781 145.429688 215.96875 145.429688 C 214.484375 145.429688 212.710938 146.214844 211.371094 147.402344 L 211.761719 144.417969 C 213.414063 143.480469 215.1875 142.972656 217.015625 142.972656 C 219.976563 142.972656 221.847656 143.964844 221.523438 146.546875 L 220.828125 151.886719 C 220.773438 152.476563 220.960938 152.6875 221.335938 152.703125 C 221.59375 152.6875 221.882813 152.648438 222.828125 152.011719 "/>
</g>
<g clip-path="url(#clip9)" clip-rule="nonzero">
<path style=" stroke:none;fill-rule:nonzero;fill:rgb(100%,100%,100%);fill-opacity:1;" d="M 233.90625 143.210938 L 229.632813 143.210938 L 230.113281 139.539063 L 229.636719 139.539063 L 224.035156 145.027344 L 223.949219 145.722656 L 225.628906 145.722656 L 224.96875 150.765625 C 224.558594 154.023438 226.492188 155.140625 228.953125 155.140625 C 230.085938 155.140625 231.070313 154.949219 232.464844 154.40625 L 232.796875 151.75 C 231.742188 152.238281 231.007813 152.421875 230.253906 152.421875 C 229.097656 152.421875 228.542969 151.703125 228.675781 150.550781 L 229.3125 145.722656 L 233.570313 145.722656 "/>
</g>
<path style=" stroke:none;fill-rule:nonzero;fill:rgb(100%,100%,100%);fill-opacity:1;" d="M 245.125 154.925781 L 241.433594 154.925781 L 243.703125 137.613281 L 247.359375 137.613281 Z M 245.125 154.925781 "/>
<path style=" stroke:none;fill-rule:nonzero;fill:rgb(100%,100%,100%);fill-opacity:1;" d="M 254.199219 139.40625 C 254.066406 140.542969 253.023438 141.445313 251.894531 141.445313 C 250.800781 141.445313 249.988281 140.523438 250.136719 139.40625 C 250.289063 138.296875 251.308594 137.375 252.429688 137.375 C 253.554688 137.375 254.347656 138.296875 254.199219 139.40625 M 252.011719 154.925781 L 248.347656 154.925781 L 249.847656 143.214844 L 253.539063 143.214844 "/>
<g clip-path="url(#clip10)" clip-rule="nonzero">
<path style=" stroke:none;fill-rule:nonzero;fill:rgb(100%,100%,100%);fill-opacity:1;" d="M 264.292969 146.457031 C 262.824219 145.472656 261.277344 145.171875 260.519531 145.171875 C 260.074219 145.171875 259.199219 145.269531 259.101563 146.089844 C 258.941406 147.382813 264.753906 147.445313 264.230469 151.339844 C 263.917969 153.78125 262.027344 155.140625 258.976563 155.140625 C 257.074219 155.140625 255.378906 154.5625 254.882813 154.292969 L 255.21875 151.6875 C 256.363281 152.199219 257.496094 152.6875 258.890625 152.6875 C 259.972656 152.6875 260.730469 152.355469 260.773438 151.8125 C 260.980469 150.121094 255.15625 150.445313 255.628906 146.609375 C 255.914063 144.433594 258.054688 142.980469 260.957031 142.980469 C 262.425781 142.980469 263.503906 143.234375 264.628906 143.851563 "/>
</g>
<g clip-path="url(#clip11)" clip-rule="nonzero">
<path style=" stroke:none;fill-rule:nonzero;fill:rgb(100%,100%,100%);fill-opacity:1;" d="M 275.597656 145.722656 L 271.339844 145.722656 L 270.703125 150.550781 C 270.566406 151.703125 271.113281 152.421875 272.265625 152.421875 C 273.035156 152.421875 273.765625 152.261719 274.796875 151.75 L 274.46875 154.40625 C 273.105469 154.949219 272.121094 155.140625 270.976563 155.140625 C 268.527344 155.140625 266.546875 154.046875 266.984375 150.765625 L 267.644531 145.722656 L 265.972656 145.722656 L 266.0625 145.03125 L 271.652344 139.53125 L 272.121094 139.53125 L 271.636719 143.210938 L 275.929688 143.210938 "/>
</g>
<g clip-path="url(#clip12)" clip-rule="nonzero">
<path style=" stroke:none;fill-rule:nonzero;fill:rgb(100%,100%,100%);fill-opacity:1;" d="M 285.636719 147.730469 C 285.691406 146.148438 284.863281 145.179688 283.4375 145.179688 C 281.988281 145.179688 280.90625 146.113281 280.535156 147.730469 Z M 287.933594 153.59375 C 285.589844 155.148438 283.398438 155.148438 282.484375 155.148438 C 278.371094 155.148438 276.007813 152.761719 276.480469 149.113281 C 276.949219 145.542969 279.855469 142.972656 283.449219 142.972656 C 286.871094 142.972656 289.367188 145.402344 288.628906 149.648438 L 280.238281 149.660156 C 280.082031 151.75 281.332031 152.96875 283.648438 152.96875 C 285.136719 152.96875 286.339844 152.539063 288.230469 151.292969 "/>
</g>
<path style=" stroke:none;fill-rule:nonzero;fill:rgb(100%,100%,100%);fill-opacity:1;" d="M 295.316406 144.90625 C 296.664063 143.550781 297.878906 142.972656 299.394531 142.972656 C 301.21875 142.972656 303.519531 144.027344 303.054688 147.484375 L 302.109375 154.925781 L 298.441406 154.925781 L 299.351563 147.792969 C 299.578125 146.148438 298.859375 145.429688 297.828125 145.429688 C 296.917969 145.429688 296.160156 145.9375 295.007813 147.382813 L 294.039063 154.925781 L 290.34375 154.925781 L 291.859375 143.207031 L 295.53125 143.207031 "/>
<g clip-path="url(#clip13)" clip-rule="nonzero">
<path style=" stroke:none;fill-rule:nonzero;fill:rgb(100%,100%,100%);fill-opacity:1;" d="M 314.320313 146.457031 C 312.839844 145.460938 311.296875 145.171875 310.5625 145.171875 C 310.09375 145.171875 309.21875 145.269531 309.117188 146.089844 C 308.964844 147.382813 314.773438 147.445313 314.277344 151.339844 C 313.953125 153.78125 312.042969 155.140625 308.992188 155.140625 C 307.101563 155.140625 305.382813 154.5625 304.914063 154.292969 L 305.246094 151.6875 C 306.371094 152.199219 307.5 152.699219 308.929688 152.6875 C 309.992188 152.6875 310.734375 152.355469 310.792969 151.8125 C 311.019531 150.121094 305.144531 150.445313 305.644531 146.609375 C 305.921875 144.417969 308.097656 142.980469 310.984375 142.980469 C 312.453125 142.980469 313.515625 143.234375 314.65625 143.851563 "/>
</g>
<path style=" stroke:none;fill-rule:nonzero;fill:rgb(100%,100%,100%);fill-opacity:1;" d="M 174.324219 103.554688 L 158.886719 103.554688 L 156.367188 110.378906 L 145.824219 110.378906 L 160.847656 75.59375 L 173.683594 75.59375 L 188.722656 110.378906 L 176.835938 110.378906 L 174.324219 103.554688 M 202.246094 83.699219 L 202.164063 83.699219 L 202.164063 110.378906 L 192.648438 110.378906 L 192.648438 75.59375 L 207.453125 75.59375 L 220.179688 101.492188 L 220.269531 101.390625 L 220.269531 75.59375 L 229.75 75.59375 L 229.75 110.378906 L 215.1875 110.378906 L 202.246094 83.699219 M 247.953125 91.839844 L 247.878906 91.839844 L 247.878906 110.378906 L 237.3125 110.402344 L 237.3125 75.59375 L 247.878906 75.59375 L 247.878906 90.867188 L 247.96875 90.867188 L 260.046875 75.59375 L 272.507813 75.59375 L 259.394531 90.90625 L 273.652344 110.378906 L 260.519531 110.378906 L 247.953125 91.839844 M 110.902344 110.378906 L 110.902344 75.59375 L 129.070313 75.59375 C 136.242188 75.632813 142.296875 78.601563 142.296875 84.660156 C 142.296875 88.953125 138.332031 91.566406 134.101563 92.289063 L 134.101563 92.417969 C 139.125 93.046875 143.238281 95.953125 143.25 100.902344 C 143.25 111.003906 129.070313 110.378906 128.761719 110.378906 L 110.902344 110.378906 M 121.441406 82.324219 L 121.441406 89.449219 L 126.816406 89.363281 C 129.671875 89.363281 131.5 88.367188 131.5 85.71875 C 131.472656 83.710938 129.644531 82.339844 127.175781 82.324219 L 121.441406 82.324219 M 121.441406 103.617188 L 127.578125 103.617188 C 130.253906 103.617188 132.226563 102.148438 132.226563 99.992188 C 132.246094 98.074219 130.714844 96.234375 128.3125 96.085938 L 121.441406 96.085938 L 121.441406 103.617188 M 161.535156 96.832031 L 171.71875 96.832031 L 166.875 82.386719 L 166.683594 82.386719 L 161.535156 96.832031 "/>
</g>
</svg>
